<mxfile host="app.diagrams.net" modified="2024-05-14T13:12:46.171Z" agent="Mozilla/5.0 (Windows NT 10.0; Win64; x64) AppleWebKit/537.36 (KHTML, like Gecko) Chrome/124.0.0.0 Safari/537.36 Edg/124.0.0.0" etag="FxmI7Fsf0Lrwzd_yQtoH" version="24.4.0" type="github">
  <diagram name="第 1 页" id="alPSqNJ8m3rAucEC1VVL">
    <mxGraphModel dx="380" dy="463" grid="0" gridSize="10" guides="1" tooltips="1" connect="1" arrows="1" fold="1" page="0" pageScale="1" pageWidth="827" pageHeight="1169" math="0" shadow="0">
      <root>
        <mxCell id="0" />
        <mxCell id="1" parent="0" />
        <mxCell id="w7tzNyiJlwlqv4V454Qx-7" style="edgeStyle=orthogonalEdgeStyle;rounded=0;orthogonalLoop=1;jettySize=auto;html=1;exitX=0.5;exitY=0.5;exitDx=0;exitDy=15;exitPerimeter=0;entryX=0.5;entryY=0;entryDx=0;entryDy=0;" edge="1" parent="1" source="w7tzNyiJlwlqv4V454Qx-2" target="w7tzNyiJlwlqv4V454Qx-3">
          <mxGeometry relative="1" as="geometry" />
        </mxCell>
        <mxCell id="w7tzNyiJlwlqv4V454Qx-8" style="edgeStyle=orthogonalEdgeStyle;rounded=0;orthogonalLoop=1;jettySize=auto;html=1;exitX=0.5;exitY=0.5;exitDx=0;exitDy=15;exitPerimeter=0;" edge="1" parent="1" source="w7tzNyiJlwlqv4V454Qx-2" target="w7tzNyiJlwlqv4V454Qx-4">
          <mxGeometry relative="1" as="geometry" />
        </mxCell>
        <mxCell id="w7tzNyiJlwlqv4V454Qx-9" style="edgeStyle=orthogonalEdgeStyle;rounded=0;orthogonalLoop=1;jettySize=auto;html=1;exitX=0.5;exitY=0.5;exitDx=0;exitDy=15;exitPerimeter=0;entryX=0.5;entryY=0;entryDx=0;entryDy=0;" edge="1" parent="1" source="w7tzNyiJlwlqv4V454Qx-2" target="w7tzNyiJlwlqv4V454Qx-5">
          <mxGeometry relative="1" as="geometry" />
        </mxCell>
        <mxCell id="w7tzNyiJlwlqv4V454Qx-2" value="开始" style="html=1;dashed=0;whiteSpace=wrap;shape=mxgraph.dfd.start" vertex="1" parent="1">
          <mxGeometry x="193" y="80" width="78" height="30" as="geometry" />
        </mxCell>
        <mxCell id="w7tzNyiJlwlqv4V454Qx-11" style="edgeStyle=orthogonalEdgeStyle;rounded=0;orthogonalLoop=1;jettySize=auto;html=1;exitX=0.5;exitY=1;exitDx=0;exitDy=0;" edge="1" parent="1" source="w7tzNyiJlwlqv4V454Qx-3" target="w7tzNyiJlwlqv4V454Qx-10">
          <mxGeometry relative="1" as="geometry" />
        </mxCell>
        <mxCell id="w7tzNyiJlwlqv4V454Qx-3" value="编辑车位" style="html=1;dashed=0;whiteSpace=wrap;" vertex="1" parent="1">
          <mxGeometry x="75" y="150" width="70" height="40" as="geometry" />
        </mxCell>
        <mxCell id="w7tzNyiJlwlqv4V454Qx-31" style="edgeStyle=orthogonalEdgeStyle;rounded=0;orthogonalLoop=1;jettySize=auto;html=1;exitX=0.5;exitY=1;exitDx=0;exitDy=0;" edge="1" parent="1" source="w7tzNyiJlwlqv4V454Qx-4" target="w7tzNyiJlwlqv4V454Qx-14">
          <mxGeometry relative="1" as="geometry" />
        </mxCell>
        <mxCell id="w7tzNyiJlwlqv4V454Qx-4" value="删除车位" style="html=1;dashed=0;whiteSpace=wrap;" vertex="1" parent="1">
          <mxGeometry x="197" y="150" width="70" height="40" as="geometry" />
        </mxCell>
        <mxCell id="w7tzNyiJlwlqv4V454Qx-33" style="edgeStyle=orthogonalEdgeStyle;rounded=0;orthogonalLoop=1;jettySize=auto;html=1;exitX=0.5;exitY=1;exitDx=0;exitDy=0;" edge="1" parent="1" source="w7tzNyiJlwlqv4V454Qx-5" target="w7tzNyiJlwlqv4V454Qx-15">
          <mxGeometry relative="1" as="geometry" />
        </mxCell>
        <mxCell id="w7tzNyiJlwlqv4V454Qx-5" value="模糊查询" style="html=1;dashed=0;whiteSpace=wrap;" vertex="1" parent="1">
          <mxGeometry x="307" y="150" width="80" height="40" as="geometry" />
        </mxCell>
        <mxCell id="w7tzNyiJlwlqv4V454Qx-13" style="edgeStyle=orthogonalEdgeStyle;rounded=0;orthogonalLoop=1;jettySize=auto;html=1;exitX=0.5;exitY=1;exitDx=0;exitDy=0;" edge="1" parent="1" source="w7tzNyiJlwlqv4V454Qx-10" target="w7tzNyiJlwlqv4V454Qx-12">
          <mxGeometry relative="1" as="geometry" />
        </mxCell>
        <mxCell id="w7tzNyiJlwlqv4V454Qx-10" value="车位信息&lt;div&gt;表单&lt;/div&gt;" style="shape=parallelogram;perimeter=parallelogramPerimeter;whiteSpace=wrap;html=1;dashed=0;" vertex="1" parent="1">
          <mxGeometry x="58.5" y="220" width="103" height="30" as="geometry" />
        </mxCell>
        <mxCell id="w7tzNyiJlwlqv4V454Qx-17" style="edgeStyle=orthogonalEdgeStyle;rounded=0;orthogonalLoop=1;jettySize=auto;html=1;exitX=0.5;exitY=1;exitDx=0;exitDy=0;entryX=0;entryY=0.5;entryDx=0;entryDy=0;" edge="1" parent="1" source="w7tzNyiJlwlqv4V454Qx-12" target="w7tzNyiJlwlqv4V454Qx-16">
          <mxGeometry relative="1" as="geometry" />
        </mxCell>
        <mxCell id="w7tzNyiJlwlqv4V454Qx-18" value="Y" style="edgeLabel;html=1;align=center;verticalAlign=middle;resizable=0;points=[];" vertex="1" connectable="0" parent="w7tzNyiJlwlqv4V454Qx-17">
          <mxGeometry x="-0.0588" relative="1" as="geometry">
            <mxPoint as="offset" />
          </mxGeometry>
        </mxCell>
        <mxCell id="w7tzNyiJlwlqv4V454Qx-24" style="edgeStyle=orthogonalEdgeStyle;rounded=0;orthogonalLoop=1;jettySize=auto;html=1;exitX=1;exitY=0.5;exitDx=0;exitDy=0;entryX=0.5;entryY=0;entryDx=0;entryDy=0;" edge="1" parent="1" source="w7tzNyiJlwlqv4V454Qx-12">
          <mxGeometry relative="1" as="geometry">
            <mxPoint x="167.5" y="330" as="targetPoint" />
          </mxGeometry>
        </mxCell>
        <mxCell id="w7tzNyiJlwlqv4V454Qx-25" value="N" style="edgeLabel;html=1;align=center;verticalAlign=middle;resizable=0;points=[];" vertex="1" connectable="0" parent="w7tzNyiJlwlqv4V454Qx-24">
          <mxGeometry x="0.1856" y="-1" relative="1" as="geometry">
            <mxPoint as="offset" />
          </mxGeometry>
        </mxCell>
        <mxCell id="w7tzNyiJlwlqv4V454Qx-12" value="修改请求成功" style="shape=rhombus;html=1;dashed=0;whiteSpace=wrap;perimeter=rhombusPerimeter;" vertex="1" parent="1">
          <mxGeometry x="64.25" y="280" width="91.5" height="40" as="geometry" />
        </mxCell>
        <mxCell id="w7tzNyiJlwlqv4V454Qx-32" style="edgeStyle=orthogonalEdgeStyle;rounded=0;orthogonalLoop=1;jettySize=auto;html=1;exitX=0.5;exitY=1;exitDx=0;exitDy=0;" edge="1" parent="1" source="w7tzNyiJlwlqv4V454Qx-14" target="w7tzNyiJlwlqv4V454Qx-20">
          <mxGeometry relative="1" as="geometry" />
        </mxCell>
        <mxCell id="w7tzNyiJlwlqv4V454Qx-14" value="车位编号" style="shape=parallelogram;perimeter=parallelogramPerimeter;whiteSpace=wrap;html=1;dashed=0;" vertex="1" parent="1">
          <mxGeometry x="180.5" y="220" width="103" height="30" as="geometry" />
        </mxCell>
        <mxCell id="w7tzNyiJlwlqv4V454Qx-34" style="edgeStyle=orthogonalEdgeStyle;rounded=0;orthogonalLoop=1;jettySize=auto;html=1;exitX=0.5;exitY=1;exitDx=0;exitDy=0;entryX=0.5;entryY=0;entryDx=0;entryDy=0;" edge="1" parent="1" source="w7tzNyiJlwlqv4V454Qx-15" target="w7tzNyiJlwlqv4V454Qx-21">
          <mxGeometry relative="1" as="geometry" />
        </mxCell>
        <mxCell id="w7tzNyiJlwlqv4V454Qx-15" value="查询表单" style="shape=parallelogram;perimeter=parallelogramPerimeter;whiteSpace=wrap;html=1;dashed=0;" vertex="1" parent="1">
          <mxGeometry x="295.5" y="220" width="103" height="30" as="geometry" />
        </mxCell>
        <mxCell id="w7tzNyiJlwlqv4V454Qx-36" style="edgeStyle=orthogonalEdgeStyle;rounded=0;orthogonalLoop=1;jettySize=auto;html=1;exitX=0.5;exitY=1;exitDx=0;exitDy=0;" edge="1" parent="1" source="w7tzNyiJlwlqv4V454Qx-16" target="w7tzNyiJlwlqv4V454Qx-35">
          <mxGeometry relative="1" as="geometry" />
        </mxCell>
        <mxCell id="w7tzNyiJlwlqv4V454Qx-16" value="更新车位列表" style="html=1;dashed=0;whiteSpace=wrap;" vertex="1" parent="1">
          <mxGeometry x="145" y="370" width="174" height="30" as="geometry" />
        </mxCell>
        <mxCell id="w7tzNyiJlwlqv4V454Qx-19" value="错误提示" style="shape=parallelogram;perimeter=parallelogramPerimeter;whiteSpace=wrap;html=1;dashed=0;" vertex="1" parent="1">
          <mxGeometry x="130" y="330" width="79" height="30" as="geometry" />
        </mxCell>
        <mxCell id="w7tzNyiJlwlqv4V454Qx-28" style="edgeStyle=orthogonalEdgeStyle;rounded=0;orthogonalLoop=1;jettySize=auto;html=1;exitX=0.5;exitY=1;exitDx=0;exitDy=0;" edge="1" parent="1" source="w7tzNyiJlwlqv4V454Qx-20" target="w7tzNyiJlwlqv4V454Qx-16">
          <mxGeometry relative="1" as="geometry" />
        </mxCell>
        <mxCell id="w7tzNyiJlwlqv4V454Qx-29" value="Y" style="edgeLabel;html=1;align=center;verticalAlign=middle;resizable=0;points=[];" vertex="1" connectable="0" parent="w7tzNyiJlwlqv4V454Qx-28">
          <mxGeometry x="-0.32" y="-2" relative="1" as="geometry">
            <mxPoint as="offset" />
          </mxGeometry>
        </mxCell>
        <mxCell id="w7tzNyiJlwlqv4V454Qx-20" value="删除请求成功" style="shape=rhombus;html=1;dashed=0;whiteSpace=wrap;perimeter=rhombusPerimeter;" vertex="1" parent="1">
          <mxGeometry x="186.25" y="280" width="91.5" height="40" as="geometry" />
        </mxCell>
        <mxCell id="w7tzNyiJlwlqv4V454Qx-27" style="edgeStyle=orthogonalEdgeStyle;rounded=0;orthogonalLoop=1;jettySize=auto;html=1;exitX=0.5;exitY=1;exitDx=0;exitDy=0;entryX=1;entryY=0.5;entryDx=0;entryDy=0;" edge="1" parent="1" source="w7tzNyiJlwlqv4V454Qx-21" target="w7tzNyiJlwlqv4V454Qx-16">
          <mxGeometry relative="1" as="geometry" />
        </mxCell>
        <mxCell id="w7tzNyiJlwlqv4V454Qx-30" value="Y" style="edgeLabel;html=1;align=center;verticalAlign=middle;resizable=0;points=[];" vertex="1" connectable="0" parent="w7tzNyiJlwlqv4V454Qx-27">
          <mxGeometry x="-0.4768" y="-3" relative="1" as="geometry">
            <mxPoint as="offset" />
          </mxGeometry>
        </mxCell>
        <mxCell id="w7tzNyiJlwlqv4V454Qx-21" value="查询请求成功" style="shape=rhombus;html=1;dashed=0;whiteSpace=wrap;perimeter=rhombusPerimeter;" vertex="1" parent="1">
          <mxGeometry x="298.75" y="280" width="96.5" height="40" as="geometry" />
        </mxCell>
        <mxCell id="w7tzNyiJlwlqv4V454Qx-23" style="edgeStyle=orthogonalEdgeStyle;rounded=0;orthogonalLoop=1;jettySize=auto;html=1;exitX=0;exitY=0.5;exitDx=0;exitDy=0;entryX=0.658;entryY=-0.033;entryDx=0;entryDy=0;entryPerimeter=0;" edge="1" parent="1" source="w7tzNyiJlwlqv4V454Qx-20" target="w7tzNyiJlwlqv4V454Qx-19">
          <mxGeometry relative="1" as="geometry" />
        </mxCell>
        <mxCell id="w7tzNyiJlwlqv4V454Qx-26" value="N" style="edgeLabel;html=1;align=center;verticalAlign=middle;resizable=0;points=[];" vertex="1" connectable="0" parent="w7tzNyiJlwlqv4V454Qx-23">
          <mxGeometry x="-0.108" y="2" relative="1" as="geometry">
            <mxPoint as="offset" />
          </mxGeometry>
        </mxCell>
        <mxCell id="w7tzNyiJlwlqv4V454Qx-35" value="结束" style="html=1;dashed=0;whiteSpace=wrap;shape=mxgraph.dfd.start" vertex="1" parent="1">
          <mxGeometry x="192" y="420" width="80" height="30" as="geometry" />
        </mxCell>
      </root>
    </mxGraphModel>
  </diagram>
</mxfile>
